# xmcd
#
# Track frame offsets:
#	150
#	15856
#	26806
#	40589
#	59059
#	77892
#	90535
#	103964
#	117339
#	126465
#	143222
#	156319
#
# Disc length: 2154 seconds
#
# Revision: 0
# Processed by: cddbd v1.5.1PL0 Copyright (c) Steve Scherf et al.
# Submitted via: dBpowerAMP V4.0
#
DISCID=a308680c
DTITLE=No Comebacks - No Comebacks
DYEAR=1900
DGENRE=Country
TTITLE0=Sleep Won't Come
TTITLE1=Who
TTITLE2=Up To My Eyes
TTITLE3=Saving It All For You
TTITLE4=This Time It Really Hurts
TTITLE5=Heading For A Heartache
TTITLE6=You Bring Out The Best In Me
TTITLE7=The Second Time Around
TTITLE8=Fire In My Heels
TTITLE9=Loisana Age
TTITLE10=Tall In The Saddle
TTITLE11=The Last Ride
EXTD=
EXTT0=
EXTT1=
EXTT2=
EXTT3=
EXTT4=
EXTT5=
EXTT6=
EXTT7=
EXTT8=
EXTT9=
EXTT10=
EXTT11=
PLAYORDER=
